<?xml version="1.0" encoding="utf-8"?>
<!-- Generator: Adobe Illustrator 21.0.0, SVG Export Plug-In . SVG Version: 6.00 Build 0)  -->
<svg version="1.1" id="Layer_1" xmlns="http://www.w3.org/2000/svg" xmlns:xlink="http://www.w3.org/1999/xlink" x="0px" y="0px"
	 viewBox="0 0 1000 1000" style="enable-background:new 0 0 1000 1000;" xml:space="preserve">
<style type="text/css">
	.st0{fill:#FF3850;}
	.st1{fill:#FFFFFF;}
</style>
<g>
	<path class="st0" d="M924.3,254C880.5,179,821,119.5,746,75.7C670.9,31.9,588.9,10,500,10S329.1,31.9,254,75.7
		C179,119.5,119.5,178.9,75.7,254C31.9,329.2,10,411.1,10,500s21.9,170.8,65.7,246C119.5,821.1,179,880.5,254,924.3
		c75.1,43.8,157.1,65.7,246,65.7s170.9-21.9,246-65.7C821,880.5,880.5,821,924.3,746c43.8-75.1,65.7-157.1,65.7-246
		S968.1,329.1,924.3,254z M818.4,467.4L528.7,757.1c-8.1,8.1-17.7,12.1-28.7,12.1s-20.6-4-28.7-12.1L181.6,467.4
		c-8.1-8.1-12.1-17.7-12.1-28.7s4-20.6,12.1-28.7l65.1-65.1c8.1-8.1,17.6-12.1,28.7-12.1c11,0,20.6,4,28.7,12.1L500,540.8
		l195.9-195.9c8.1-8.1,17.7-12.1,28.7-12.1s20.6,4,28.7,12.1l65.1,65.1c8.1,8.1,12.1,17.7,12.1,28.7S826.5,459.3,818.4,467.4z"/>
	<path class="st1" d="M753.3,344.9c-8.1-8.1-17.7-12.1-28.7-12.1s-20.6,4-28.7,12.1L500,540.8L304.1,344.9
		c-8.1-8.1-17.7-12.1-28.7-12.1c-11.1,0-20.6,4-28.7,12.1L181.6,410c-8.1,8.1-12.1,17.7-12.1,28.7s4,20.6,12.1,28.7l289.7,289.7
		c8.1,8.1,17.7,12.1,28.7,12.1s20.6-4,28.7-12.1l289.7-289.7c8.1-8.1,12.1-17.7,12.1-28.7s-4-20.6-12.1-28.7L753.3,344.9z"/>
</g>
</svg>
