<?xml version="1.0" encoding="utf-8"?>
<!-- Generator: Adobe Illustrator 21.0.0, SVG Export Plug-In . SVG Version: 6.00 Build 0)  -->
<svg version="1.1" id="Layer_1" xmlns="http://www.w3.org/2000/svg" xmlns:xlink="http://www.w3.org/1999/xlink" x="0px" y="0px"
	 viewBox="0 0 56 56" style="enable-background:new 0 0 56 56;" xml:space="preserve">
<style type="text/css">
	.st0{fill:#FFFFFF;}
	.st1{fill:#35C54A;}
</style>
<symbol  id="Search" viewBox="-18.1 -17.6 35.9 34.8">
	<g>
		<g>
			<g>
				<path class="st0" d="M-17.8-13.4c-0.4,0.5-0.4,1.2,0.1,1.6l9.6,8.7C-7.7-2.7-7-2.7-6.5-3.2L-3.1-7c0.4-0.5,0.4-1.2-0.1-1.6
					l-9.6-8.7c-0.5-0.4-1.2-0.4-1.6,0.1L-17.8-13.4z"/>
			</g>
		</g>
	</g>
	<g>
		<path class="st0" d="M5.2,17.2c1.4,0,2.7-0.2,4.1-0.7c6.6-2.3,10-9.4,7.8-16c-1.8-5.2-6.7-8.5-11.9-8.5c-1.4,0-2.7,0.2-4.1,0.7
			C-5.5-5-9,2.2-6.7,8.8C-4.9,14,0,17.2,5.2,17.2 M5.2,13.8c-3.9,0-7.4-2.5-8.7-6.2c-0.8-2.3-0.7-4.8,0.4-7C-2-1.6-0.1-3.2,2.2-4
			c1-0.3,2-0.5,3-0.5c3.9,0,7.4,2.5,8.7,6.2c0.8,2.3,0.7,4.8-0.4,7c-1.1,2.2-2.9,3.9-5.2,4.7l0,0C7.2,13.6,6.2,13.8,5.2,13.8
			L5.2,13.8z"/>
	</g>
</symbol>
<g>
	<circle class="st1" cx="28" cy="28" r="28"/>
</g>
<use xlink:href="#Search"  width="35.9" height="34.8" id="XMLID_1_" x="-18.1" y="-17.6" transform="matrix(1.0315 0 0 -1.033 28.1841 27.8157)" style="overflow:visible;"/>
</svg>
