<?xml version="1.0" encoding="utf-8"?>
<!-- Generator: Adobe Illustrator 21.0.0, SVG Export Plug-In . SVG Version: 6.00 Build 0)  -->
<svg version="1.1" id="Layer_1" xmlns="http://www.w3.org/2000/svg" xmlns:xlink="http://www.w3.org/1999/xlink" x="0px" y="0px"
	 viewBox="0 0 56 56" style="enable-background:new 0 0 56 56;" xml:space="preserve">
<style type="text/css">
	.st0{fill:#FFFFFF;}
	.st1{fill:#0CA44A;}
</style>
<g>
	<path class="st0" d="M21.9,34.8c3.1,0.8,6,0.2,8.7-1.6c2.9,2.9,5.8,5.8,8.6,8.6c0.5,0.5,0.9,0.5,1.4,0c0.4-0.3,0.7-0.7,1.1-1.1
		c0.4-0.5,0.4-0.9,0-1.4c-2.9-2.9-5.8-5.8-8.7-8.7c3.4-4.8,2.2-10.9-1.9-14.2c-4-3.3-9.9-3.1-13.6,0.3c-4,3.6-4.7,9.5-1.7,13.8
		C17.3,32.7,19.3,34.1,21.9,34.8z M24.5,17.5c3.9,0,7,3.1,7,7s-3.1,7-7,7s-7-3.1-7-7.1C17.5,20.6,20.7,17.5,24.5,17.5z"/>
	<path class="st1" d="M28,0C12.7-0.1,0.1,12.5,0,27.8C0,43.4,12.4,55.9,28,56c15.3,0.1,27.9-12.5,28-27.8C56,12.6,43.6,0.1,28,0z
		 M41.7,40.7c-0.4,0.4-0.7,0.8-1.1,1.1c-0.5,0.5-0.9,0.5-1.4,0c-2.8-2.8-5.7-5.7-8.6-8.6c-2.7,1.8-5.6,2.4-8.7,1.6
		c-2.6-0.7-4.6-2.1-6.1-4.3c-3-4.3-2.3-10.2,1.7-13.8c3.7-3.4,9.6-3.6,13.6-0.3c4.1,3.3,5.3,9.4,1.9,14.2c2.9,2.9,5.8,5.8,8.7,8.7
		C42.1,39.8,42.1,40.2,41.7,40.7z"/>
	<path class="st1" d="M24.5,31.5c3.9,0,7-3.1,7-7s-3.1-7-7-7c-3.8,0-7,3.1-7,6.9C17.5,28.4,20.6,31.5,24.5,31.5z"/>
</g>
</svg>
